<?xml version="1.0" standalone="no"?>
<!DOCTYPE svg PUBLIC "-//W3C//DTD SVG 20010904//EN"
 "http://www.w3.org/TR/2001/REC-SVG-20010904/DTD/svg10.dtd">
<svg version="1.0" xmlns="http://www.w3.org/2000/svg"
 width="500.000000pt" height="500.000000pt" viewBox="0 0 500.000000 500.000000"
 preserveAspectRatio="xMidYMid meet">
<metadata>
Created by potrace 1.11, written by Peter Selinger 2001-2013
</metadata>
<g transform="translate(0.000000,500.000000) scale(0.100000,-0.100000)"
fill="#000000" stroke="none">
<path d="M4417 4904 c-3 -4 -149 -13 -277 -19 -69 -3 -143 -8 -165 -10 -22 -3
-60 -7 -85 -10 -60 -6 -114 -14 -175 -26 -27 -5 -59 -11 -70 -13 -172 -33
-483 -167 -680 -292 -199 -126 -444 -324 -649 -524 -70 -69 -135 -124 -144
-123 -79 8 -188 16 -237 16 -539 3 -1124 -281 -1605 -778 -234 -242 -397 -525
-302 -525 10 0 57 14 103 30 80 29 120 41 199 56 66 12 265 11 345 -3 141 -23
320 -94 435 -172 25 -17 47 -26 48 -21 2 6 8 10 14 10 5 0 1 -15 -10 -32 -76
-124 -197 -402 -232 -535 -35 -130 -36 -155 -6 -190 14 -17 26 -35 26 -40 0
-5 -22 -24 -50 -42 -31 -20 -50 -40 -50 -51 0 -33 193 -251 475 -535 148 -149
183 -179 206 -170 8 3 30 25 49 50 19 24 37 44 40 45 3 0 21 -14 40 -31 33
-28 38 -30 95 -24 115 11 291 64 443 131 29 13 55 24 58 24 2 0 47 21 100 47
111 54 101 59 157 -76 106 -251 121 -503 47 -744 -11 -37 -33 -97 -49 -133
-16 -37 -26 -76 -23 -86 4 -18 11 -20 51 -14 120 17 380 193 600 409 234 230
414 473 541 732 133 273 191 502 195 774 l2 134 69 61 c163 144 412 414 542
587 150 200 289 457 356 659 33 99 78 299 90 400 17 142 26 224 31 295 3 44 8
94 11 110 12 68 14 96 19 222 5 146 -9 253 -44 321 -38 75 -194 116 -418 110
-63 -1 -115 -3 -116 -4z"/>
<path d="M769 1183 c-93 -98 -265 -314 -365 -458 -159 -231 -264 -401 -264
-428 0 -7 -4 -17 -9 -22 -4 -6 -11 -22 -15 -36 -9 -41 11 -51 68 -34 212 64
1048 621 1025 683 -6 14 -351 372 -359 372 -4 0 -41 -35 -81 -77z"/>
</g>
</svg>
